<svg xmlns="http://www.w3.org/2000/svg" xmlns:svg="http://www.w3.org/2000/svg" version="1.1" id="svg461" viewBox="45.56 121.25 92.61 16.74">
  <defs id="defs458"/>
  <g id="layer1">
    <g id="Layer_2" data-name="Layer 2" transform="matrix(0.26458333,0,0,0.26458333,45.563156,121.25279)">
      <g id="Main_layer" data-name="Main layer">
        <path class="cls-1" d="m 43.33,51.54 c -0.13,0 -0.4,0.12 -0.56,0.72 a 31.17,31.17 0 0 0 -0.67,5.05 c -0.16,0.75 -1.34,1.75 -2.32,1.17 a 11.76,11.76 0 0 0 -1.86,-0.89 11.15,11.15 0 0 0 -2,-0.63 c -1.11,-0.25 -1.29,-1.78 -0.88,-2.44 a 32.85,32.85 0 0 0 3,-4.14 c 0.3,-0.57 0.16,-0.83 0.08,-0.92 a 20.3,20.3 0 0 1 -2,-1.28 c -0.12,0 -0.42,0 -0.81,0.45 A 31.49,31.49 0 0 0 32.76,53 c -0.44,0.63 -1.91,1.11 -2.59,0.2 a 12,12 0 0 0 -1.39,-1.55 10.94,10.94 0 0 0 -1.58,-1.33 1.73,1.73 0 0 1 0.11,-2.59 33.55,33.55 0 0 0 4.33,-2.69 c 0.49,-0.42 0.47,-0.7 0.42,-0.83 a 20.08,20.08 0 0 1 -1.34,-1.93 c -0.09,-0.09 -0.36,-0.21 -0.92,0.1 a 32.19,32.19 0 0 0 -4,3.1 c -0.64,0.41 -2.18,0.29 -2.47,-0.81 a 11.55,11.55 0 0 0 -0.69,-2 12.06,12.06 0 0 0 -1,-1.85 c -0.6,-1 0.36,-2.16 1.1,-2.34 a 33,33 0 0 0 5,-0.84 c 0.6,-0.18 0.7,-0.45 0.71,-0.58 A 19.74,19.74 0 0 1 28,34.84 C 27.94,34.72 27.75,34.5 27.11,34.58 a 32.51,32.51 0 0 0 -4.92,1.31 c -0.76,0.14 -2.13,-0.56 -2,-1.69 a 12,12 0 0 0 0.11,-2.07 11.67,11.67 0 0 0 -0.18,-2.06 c -0.2,-1.12 1.15,-1.86 1.92,-1.76 a 31.9,31.9 0 0 0 5,1.16 c 0.64,0.06 0.83,-0.17 0.88,-0.28 a 17.73,17.73 0 0 1 0.42,-2.33 c 0,-0.13 -0.13,-0.39 -0.73,-0.57 a 33.2,33.2 0 0 0 -5,-0.66 C 21.86,25.46 20.86,24.3 21.43,23.31 a 11.62,11.62 0 0 0 0.89,-1.87 10.86,10.86 0 0 0 0.63,-2 c 0.26,-1.11 1.79,-1.28 2.44,-0.89 a 32.37,32.37 0 0 0 4.14,3 c 0.57,0.3 0.83,0.16 0.93,0.08 a 18.18,18.18 0 0 1 1.28,-2 c 0,-0.12 0,-0.41 -0.45,-0.8 a 33.2,33.2 0 0 0 -4.41,-2.55 c -0.64,-0.45 -1.11,-1.91 -0.2,-2.59 a 11.78,11.78 0 0 0 1.54,-1.38 12.69,12.69 0 0 0 1.34,-1.59 c 0.65,-0.93 2.13,-0.5 2.59,0.11 a 31.38,31.38 0 0 0 2.69,4.33 c 0.41,0.49 0.7,0.46 0.82,0.42 a 22.22,22.22 0 0 1 1.94,-1.34 c 0.08,-0.1 0.21,-0.36 -0.11,-0.91 A 31.19,31.19 0 0 0 34.4,9.28 C 33.98,8.63 34.1,7.1 35.2,6.82 a 12.59,12.59 0 0 0 2,-0.69 12.87,12.87 0 0 0 1.84,-0.95 c 1,-0.61 2.17,0.34 2.35,1.09 a 31.49,31.49 0 0 0 0.83,5 c 0.18,0.58 0.45,0.68 0.58,0.7 A 20.18,20.18 0 0 1 45,11.52 c 0.12,-0.06 0.34,-0.25 0.27,-0.9 A 31.7,31.7 0 0 0 44,5.7 c -0.14,-0.75 0.56,-2.12 1.69,-2 a 17.26,17.26 0 0 0 4.06,-0.19 c 1.13,-0.19 1.87,1.16 1.76,1.91 a 32.1,32.1 0 0 0 -1.17,5 c 0,0.64 0.18,0.83 0.3,0.88 0.55,0.07 1.09,0.18 1.62,0.29 L 54.11,0.91 H 10.86 L 0,62.36 h 43.25 l 1.86,-10.5 c -0.6,-0.09 -1.2,-0.18 -1.78,-0.32 z" id="path6" style="fill:#db316c"/>
        <path class="cls-2" d="M 77.3,0.91 H 96 c 10,0 14.57,5.52 13,14.39 l -1,5.79 c -1.27,7 -5.43,9.32 -8.33,10.5 l -0.09,0.36 c 2.72,1 6.15,4.07 4.8,11.59 l -0.82,4.7 c -1.72,9.87 -7.78,14.12 -16.92,14.12 h -20.2 z m 3.9,50.23 h 4.16 c 3.44,0 5.52,-1.81 6.24,-6.06 l 0.64,-2.9 c 0.72,-4.26 -1.18,-5.79 -4.07,-5.79 H 83.73 Z M 85.45,26.7 h 4.25 c 2.81,0 5.16,-1.54 5.8,-5.43 l 0.63,-3.62 C 96.76,14.12 95.32,12.4 91.88,12.4 H 88 Z" id="path8" style="fill:#1d1d1d"/>
        <path class="cls-2" d="m 133.24,35.48 -4.71,26.88 h -12.67 l 4.71,-26.61 -8.15,-34.84 h 13.85 L 129.44,22 140.57,0.91 h 12.58 z" id="path10" style="fill:#1d1d1d"/>
        <path class="cls-2" d="m 139.12,32 h 23.17 l -1.72,9.32 h -23.08 z" id="path12" style="fill:#1d1d1d"/>
        <path class="cls-2" d="m 202.47,40.1 -0.81,4.43 c -2.26,12.76 -9.78,18.74 -19.66,18.74 -10.41,0 -18,-6 -15.57,-19.91 l 4.34,-24.62 C 173.06,6.06 180.12,0 190.43,0 c 10,0 18,6.06 15.66,19.46 l -0.72,3.8 -10.77,0.74 0.54,-3.72 c 1.09,-5.52 -1,-7.78 -4.52,-7.78 -3.52,0 -6.34,2.26 -7.34,7.78 l -4,22.54 c -1,5.8 1.09,8 4.62,8 3.53,0 6.24,-2.17 7.33,-8 l 0.63,-3.53 z" id="path14" style="fill:#1d1d1d"/>
        <path class="cls-2" d="m 248.18,19.82 -4.35,24.71 c -2.17,12.76 -10.23,18.74 -20.72,18.74 -10.49,0 -18.92,-6 -16.57,-19.91 l 4.35,-24.62 C 213.15,6.06 221.2,0 231.7,0 242,0 250.62,6.06 248.18,19.82 Z m -24.71,0.45 -4.08,22.54 c -1,5.8 1.09,8 4.62,8 3.53,0 6.34,-2.17 7.33,-8 l 4,-22.54 c 1,-5.52 -1.08,-7.78 -4.52,-7.78 -3.44,0 -6.45,2.26 -7.35,7.78 z" id="path16" style="fill:#1d1d1d"/>
        <path class="cls-2" d="m 281,0.91 h 12 L 270.17,62.36 H 255.05 L 253.42,0.91 h 13.94 l -0.27,40 z" id="path18" style="fill:#1d1d1d"/>
        <path class="cls-2" d="M 310,0.91 299.13,62.36 H 286.46 L 297.32,0.91 Z" id="path20" style="fill:#1d1d1d"/>
        <path class="cls-2" d="M 306.55,62.36 317.41,0.91 H 334 c 10.41,0 18,5.52 15.57,19.09 l -4.25,24.17 c -2.27,12.76 -9.06,18.19 -19.46,18.19 z m 18.91,-11.94 c 3.53,0 6.34,-2.18 7.34,-8 l 3.89,-21.81 c 0.9,-5.52 -1.09,-7.79 -4.62,-7.79 h -4 l -6.7,37.57 z" id="path22" style="fill:#1d1d1d"/>
        <polygon class="cls-1" points="69.69,62.36 80.55,0.91 74.39,0.91 63.53,62.36 " id="polygon24" style="fill:#db316c"/>
        <path class="cls-3" d="m 66.44,31.64 a 2.9,2.9 0 0 1 -0.21,1.06 v 0 a 2.19,2.19 0 0 1 -0.25,0.48 c 0,0 0,0 0,0 a 2.56,2.56 0 0 1 -0.36,0.44 l -10.09,10.1 a 2.85,2.85 0 0 1 -4,-4 l 5.21,-5.21 h -22.3 a 2.85,2.85 0 0 1 0,-5.7 H 56.71 L 51.5,23.57 a 2.85,2.85 0 0 1 4,-4 l 10.1,10.05 a 2.56,2.56 0 0 1 0.36,0.44 3,3 0 0 1 0.24,0.47 2.91,2.91 0 0 1 0.24,1.11 z" id="path26" style="fill:#4b9bd9"/>
      </g>
    </g>
  </g>
</svg>