<?xml version="1.0" encoding="UTF-8"?>
<svg id="Layer_1" data-name="Layer 1" xmlns="http://www.w3.org/2000/svg" version="1.1" viewBox="0 0 337.4 121.6">
  <defs>
    <style>
      .cls-1 {
        fill: #d54f2a;
      }

      .cls-1, .cls-2 {
        stroke-width: 0px;
      }

      .cls-2 {
        fill: #f36f37;
      }
    </style>
  </defs>
  <g>
    <path class="cls-1" d="M136,120.3l11.2-24.8c.1-.2.3-.4.6-.4h.4c.3,0,.5.2.6.4l11.1,24.8c.2.5,0,1-.6,1h-1.5c-.3,0-.6-.2-.6-.4l-2.7-6.1h-13.1l-2.7,6.1c0,.2-.3.4-.6.4h-1.5c-.6,0-.8-.5-.6-1ZM153.5,112.4c-1.8-4-3.6-8.1-5.4-12.1h-.3l-5.4,12.1h11.1Z"/>
    <path class="cls-1" d="M162.8,107.2c0-.4.3-.7.7-.7h.7c.3,0,.5.1.6.4l.3,1.1s2.1-2,5.2-2,5.7,2.8,5.7,6.6v7.8c0,.4-.3.7-.7.7h-1.2c-.4,0-.7-.3-.7-.7v-7.8c0-2.8-1.3-4.2-3.3-4.2s-4.8,2.1-4.8,2.1v9.9c0,.4-.3.7-.7.7h-1.1c-.4,0-.7-.3-.7-.7v-13.4Z"/>
    <path class="cls-1" d="M182.1,108.7h-1.9c-.4,0-.7-.3-.7-.7v-.8c0-.4.3-.7.7-.7h1.9v-4.1c0-.4.3-.7.7-.7h1.2c.4,0,.7.3.7.6v4.2h4.3c.4,0,.7.3.7.7v.8c0,.4-.3.7-.7.7h-4.3v8.6c0,1.5.4,1.8,1.2,1.8s2.2-.6,2.7-.8c.6-.3.7,0,.9.2l.6.9c.3.4.1.7-.3.9-.5.3-2.5,1.3-4.2,1.3-3,0-3.4-1.8-3.4-4.1v-8.9Z"/>
    <path class="cls-1" d="M193.2,97.9c0-1,.8-1.8,1.7-1.8s1.8.8,1.8,1.8-.8,1.7-1.8,1.7-1.7-.8-1.7-1.7ZM193.7,107.2c0-.4.3-.7.7-.7h1.1c.4,0,.7.3.7.7v13.4c0,.4-.3.7-.7.7h-1.1c-.4,0-.7-.3-.7-.7v-13.4Z"/>
    <path class="cls-1" d="M201.5,96.1c0-.4.3-.7.7-.7h1.1c.4,0,.7.3.7.7v11s1.5-1,3.9-1c4.4,0,7.1,3.4,7.1,7.7s-3,7.8-6.7,7.8-4.5-2-4.5-2l-.2,1c0,.3-.3.6-.6.6h-.8c-.4,0-.7-.3-.7-.7v-24.4ZM208.2,119.3c2.7,0,4.4-2.5,4.4-5.4s-1.6-5.3-4.8-5.3-3.6.9-3.6.9v7.4s1.4,2.4,4,2.4Z"/>
    <path class="cls-1" d="M218.8,97.9c0-1,.8-1.8,1.7-1.8s1.8.8,1.8,1.8-.8,1.7-1.8,1.7-1.7-.8-1.7-1.7ZM219.3,107.2c0-.4.3-.7.7-.7h1.1c.4,0,.7.3.7.7v13.4c0,.4-.3.7-.7.7h-1.1c-.4,0-.7-.3-.7-.7v-13.4Z"/>
    <path class="cls-1" d="M233.4,106.1c4.1,0,7.3,3.5,7.3,7.7s-3.2,7.8-7.3,7.8-7.3-3.5-7.3-7.8,3.2-7.7,7.3-7.7ZM233.4,119.2c2.7,0,4.8-2.4,4.8-5.4s-2.1-5.3-4.8-5.3-4.8,2.4-4.8,5.3,2.1,5.4,4.8,5.4Z"/>
    <path class="cls-1" d="M245.8,108.7h-1.9c-.4,0-.7-.3-.7-.7v-.8c0-.4.3-.7.7-.7h1.9v-4.1c0-.4.3-.7.7-.7h1.2c.4,0,.7.3.7.6v4.2h4.3c.4,0,.7.3.7.7v.8c0,.4-.3.7-.7.7h-4.3v8.6c0,1.5.4,1.8,1.2,1.8s2.2-.6,2.7-.8c.6-.3.7,0,.9.2l.6.9c.3.4.1.7-.3.9-.5.3-2.5,1.3-4.2,1.3-3,0-3.4-1.8-3.4-4.1v-8.9Z"/>
    <path class="cls-1" d="M257,97.9c0-1,.8-1.8,1.7-1.8s1.8.8,1.8,1.8-.8,1.7-1.8,1.7-1.7-.8-1.7-1.7ZM257.5,107.2c0-.4.3-.7.7-.7h1.1c.4,0,.7.3.7.7v13.4c0,.4-.3.7-.7.7h-1.1c-.4,0-.7-.3-.7-.7v-13.4Z"/>
  </g>
  <path class="cls-1" d="M265.3,96.1c0-.4.3-.7.7-.7h1.1c.4,0,.7.3.7.7v16l6.3-5.2c.3-.3.6-.4.9-.4h2c.6,0,.6.7.3.9l-7,5.6,8.2,7.3c.3.3.3.9-.4.9h-2c-.3,0-.6-.2-.7-.3l-7.5-7.1v6.7c0,.4-.3.7-.7.7h-1.1c-.4,0-.7-.3-.7-.7v-24.4Z"/>
  <g>
    <path class="cls-1" d="M286.5,111.8c1.6,0,3.1.5,3.1.5,0-2.7-.3-4-2.4-4s-3.8.6-4.4.8c-.4.1-.6,0-.7-.4l-.3-.9c-.1-.4,0-.7.4-.8.2-.1,2.4-1,5.1-1s4.7,1.9,4.7,6.2v8.2c0,.4-.3.7-.7.7h-.7c-.4,0-.5-.2-.6-.6l-.3-1c-.8.8-2.3,1.9-4.6,1.9s-4.5-1.9-4.5-4.8,2.1-4.9,5.9-4.9ZM285.5,119.4c1.8,0,3.4-1.1,4.1-2.1v-2.9c-.4-.3-1.5-.6-3.1-.6s-3.5,1-3.5,3,1,2.6,2.6,2.6Z"/>
    <path class="cls-1" d="M298.7,117.4c1.2,0,2.1.9,2.1,2.1s-.9,2.1-2.1,2.1-2.1-1-2.1-2.1,1-2.1,2.1-2.1Z"/>
    <path class="cls-1" d="M305.5,107.2c0-.4.3-.7.7-.7h.7c.3,0,.5.1.6.4l.3,1.1s2.1-2,5.2-2,5.7,2.8,5.7,6.6v7.8c0,.4-.3.7-.7.7h-1.2c-.4,0-.7-.3-.7-.7v-7.8c0-2.8-1.3-4.2-3.3-4.2s-4.8,2.1-4.8,2.1v9.9c0,.4-.3.7-.7.7h-1.1c-.4,0-.7-.3-.7-.7v-13.4Z"/>
    <path class="cls-1" d="M330,106.1c4.1,0,7.3,3.5,7.3,7.7s-3.2,7.8-7.3,7.8-7.3-3.5-7.3-7.8,3.2-7.7,7.3-7.7ZM330,119.2c2.7,0,4.8-2.4,4.8-5.4s-2.1-5.3-4.8-5.3-4.8,2.4-4.8,5.3,2.1,5.4,4.8,5.4Z"/>
  </g>
  <g>
    <path class="cls-2" d="M86,15.1C82.6,5.6,78.1,0,69,0v36.8h.2l13.8,42.2h-14v21.1h20.8l4.2,12c1.9,5.8,6.5,9.1,12.1,9.1s12.4-4.7,12.4-12.1-.3-3.5-.9-4.9L86,15.1Z"/>
    <path class="cls-1" d="M55.6,0C51.3,0,47.8,3.5,47.8,7.8s3.5,7.8,7.8,7.8h9.6V0h-9.6Z"/>
    <path class="cls-1" d="M29.5,21.1c-4.3,0-7.8,3.5-7.8,7.8s3.5,7.8,7.8,7.8h35.7v-15.7H29.5Z"/>
    <path class="cls-1" d="M54.5,42.2c-4.3,0-7.8,3.5-7.8,7.8s3.5,7.8,7.8,7.8h10.7v-15.7h-10.7Z"/>
    <path class="cls-1" d="M32.7,63.3c-4.3,0-7.8,3.5-7.8,7.8s3.5,7.8,7.8,7.8h32.5v-15.7h-32.5Z"/>
    <path class="cls-1" d="M1.5,92.3c0-4.3,3.5-7.8,7.8-7.8h34.2c4.3,0,7.8,3.5,7.8,7.8s-3.5,7.8-7.8,7.8H9.3c-4.3,0-7.8-3.5-7.8-7.8"/>
    <path class="cls-1" d="M40.4,105.6c-4.3,0-7.8,3.5-7.8,7.8s3.5,7.8,7.8,7.8h24.8v-15.7h-24.8Z"/>
    <path class="cls-2" d="M40.7,50.1c0,4.3-3.5,7.8-7.8,7.8s-7.8-3.5-7.8-7.8,3.5-7.8,7.8-7.8,7.8,3.5,7.8,7.8"/>
    <path class="cls-2" d="M57.4,92.3c0,4.3,3.5,7.8,7.8,7.8v-15.7c-4.3,0-7.8,3.5-7.8,7.8"/>
    <path class="cls-2" d="M26.6,113.4c0,4.3-3.5,7.8-7.8,7.8s-7.8-3.5-7.8-7.8,3.5-7.8,7.8-7.8,7.8,3.5,7.8,7.8"/>
    <path class="cls-2" d="M15.7,28.9c0,4.3-3.5,7.8-7.8,7.8s-7.8-3.5-7.8-7.8,3.5-7.8,7.8-7.8,7.8,3.5,7.8,7.8"/>
  </g>
</svg>